inDegrees=no
num_controls=7
num_derivatives=13
num_iterations=120
num_multipliers=7
num_parameters=0
num_slacks=7
num_states=26
objective=0.469777
objective_accelerations=0.063200
objective_balance=0.002105
objective_effort=0.020107
objective_height=0.374861
objective_ligament=0.009504
solver_duration=1585.020454
status=Solve_Succeeded
success=true
DataType=double
version=3
OpenSimVersion=4.5
endheader
time	/jointset/ground_pelvis/pelvis_tilt/value	/jointset/ground_pelvis/pelvis_tx/value	/jointset/ground_pelvis/pelvis_ty/value	/jointset/hip_l/hip_flexion_l/value	/jointset/hip_l/hip_adduction_l/value	/jointset/hip_l/hip_rotation_l/value	/jointset/back/lumbar_extension/value	/jointset/patellofemoral_l/patellar_flexion_l/value	/jointset/knee_l/knee_flexion_l/value	/jointset/knee_l/knee_adduction_l/value	/jointset/knee_l/knee_rotation_l/value	/jointset/ankle_l/ankle_angle_l/value	/jointset/subtalar_l/subtalar_angle_l/value	/jointset/ground_pelvis/pelvis_tilt/speed	/jointset/ground_pelvis/pelvis_tx/speed	/jointset/ground_pelvis/pelvis_ty/speed	/jointset/hip_l/hip_flexion_l/speed	/jointset/hip_l/hip_adduction_l/speed	/jointset/hip_l/hip_rotation_l/speed	/jointset/back/lumbar_extension/speed	/jointset/patellofemoral_l/patellar_flexion_l/speed	/jointset/knee_l/knee_flexion_l/speed	/jointset/knee_l/knee_adduction_l/speed	/jointset/knee_l/knee_rotation_l/speed	/jointset/ankle_l/ankle_angle_l/speed	/jointset/subtalar_l/subtalar_angle_l/speed	/forceset/tau_hip_flexion_l	/forceset/tau_hip_adduction_l	/forceset/tau_hip_rotation_l	/forceset/tau_knee_flexion_l	/forceset/tau_ankle_angle_l	/forceset/tau_subtalar_angle_l	/forceset/tau_lumbar_extension	lambda_cid13_p0	lambda_cid13_p1	lambda_cid13_p2	lambda_cid13_p3	lambda_cid13_p4	lambda_cid13_p5	lambda_cid14_p0	/jointset/ground_pelvis/pelvis_tilt/accel	/jointset/ground_pelvis/pelvis_tx/accel	/jointset/ground_pelvis/pelvis_ty/accel	/jointset/hip_l/hip_flexion_l/accel	/jointset/hip_l/hip_adduction_l/accel	/jointset/hip_l/hip_rotation_l/accel	/jointset/back/lumbar_extension/accel	/jointset/patellofemoral_l/patellar_flexion_l/accel	/jointset/knee_l/knee_flexion_l/accel	/jointset/knee_l/knee_adduction_l/accel	/jointset/knee_l/knee_rotation_l/accel	/jointset/ankle_l/ankle_angle_l/accel	/jointset/subtalar_l/subtalar_angle_l/accel	gamma_cid13_p0	gamma_cid13_p1	gamma_cid13_p2	gamma_cid13_p3	gamma_cid13_p4	gamma_cid13_p5	gamma_cid14_p0
1.5	-0.5529467477696579	-0.04024385660512669	0.7907782564309405	1.202074319699157	-0.3471103383537631	-0.1165858686550118	-0.3422188145410449	0.5710568117444119	0.5710568117444353	-0.05729961762373622	-0.1744673403815692	0.01783166386188465	0.08032470909576767	1.06493288714378	0.4977741686928263	0.4733051727688556	-2.809831981991404	-0.00113056007236041	-0.5201975008950881	0.6004825912462236	-1.549995535198287	-1.549995535198407	-0.2102161531085955	0.003402997165480077	0.08557922652149196	0.03052815891107204	-0.2029440813107495	0.01180751383265132	0.007154929912700683	-0.06471324906484519	0.03035885186680499	0.0154146739755855	0.1657813182564291	-13.78087651387054	-6.670105877371974	3.510565299770858	-6.481651706476962	-430.5636087021938	-65.21647464643934	-20.02448461830535	0.8208571179557872	0.8469563045026901	-0.607654535122941	-1.741241328912891	0.2481015460446112	-0.2510304161329429	1.849080812560647	-0.6070853120082825	-0.6070853120082831	-0.3483417701392527	0.1856068006312339	0.2611445673564812	0.3379236432624192	-2.110008260870132e-08	1.456450013931097e-06	1.46277499765289e-07	2.956941243289787e-07	2.392994158832356e-07	-1.3694544756913e-07	2.21614215977916e-07
1.51	-0.5422570810153826	-0.03522443199263089	0.7954799473221095	1.173891556954435	-0.3471101107556184	-0.1218018816080904	-0.3361235118828619	0.5555284204464095	0.5555284204464392	-0.05941989584091592	-0.1744264010855952	0.01870024229984451	0.08064593726536258	1.072828933525049	0.5060306568122527	0.4669280732288302	-2.826314111610131	0.001192601588442589	-0.52295218691876	0.6184840144493806	-1.55547478271416	-1.555474782714243	-0.2137950537127	0.004803641155129355	0.08812752959478913	0.03373235848316886	-0.196261899411642	0.01138360312405132	0.007492476336137112	-0.0626323309947336	0.02652885789713437	0.01453559022887683	0.1607676092892913	-14.86056619685214	-6.316307392290327	3.702064349204103	-5.526598050690099	-426.6671776829176	-64.86163974974539	-20.54187476228297	0.7482698573179887	0.8030342089006569	-0.6684190300044394	-1.540705280506838	0.2266822456744734	-0.2795800647946691	1.761584183050102	-0.4871990416305133	-0.4871990416249261	-0.3557453256028227	0.1200345060358362	0.2503711277205175	0.3136992622181687	-8.794349925597577e-09	1.378210600193055e-06	-4.785114582367381e-10	2.777207913845447e-07	2.743090148570127e-07	-1.127656714561201e-07	2.265663303844337e-07
1.52	-0.5314935955054733	-0.03012483467029322	0.8001147309445656	1.145556171613094	-0.3470861997869505	-0.1270438198952662	-0.3298510127708759	0.5399514657591961	0.5399514657592349	-0.06157457928814804	-0.1743709070881445	0.01959404335861829	0.08099961366028544	1.079696638270542	0.5138087106611982	0.4599237190263196	-2.840356501315029	0.003606114032297433	-0.5253825677148463	0.6359218820068125	-1.559708213040178	-1.559708213040224	-0.2170971991190752	0.00631393746094125	0.09062375068425373	0.03701780397666003	-0.1895797175125316	0.01095969241545747	0.007830022759580314	-0.06055141292462038	0.02269886392746606	0.01365650648217509	0.1557539003221544	-15.94462818336699	-5.960320213634914	3.891589233701233	-4.5524849251897	-422.8344765575448	-64.54235914680457	-21.03791853310422	0.6151887908007209	0.7512694504065358	-0.7331054676199922	-1.253293346147151	0.2661717026549792	-0.1861693706158441	1.736369683415648	-0.3579218740371282	-0.3579218740371069	-0.2929907305933994	0.2075372638637568	0.2507281705899612	0.3541728275412864	1.918389542201308e-08	1.359789806500488e-06	-2.332221396327809e-07	2.611809149601472e-07	3.476343658542486e-07	-9.490769774322542e-08	2.556248607758298e-07
1.53	-0.5206665440685243	-0.02494972106290304	0.8046764714776087	1.11709200648388	-0.3470383881731882	-0.1323078353597983	-0.3234073036005515	0.5243381375678915	0.5243381375679008	-0.06376253751813828	-0.1742996348702954	0.0205125237938325	0.08138582819338668	1.085524514014135	0.5211442412001949	0.4523293966179124	-2.852072167903089	0.005961761193341998	-0.527360168081662	0.6527138141585584	-1.562744775114054	-1.56274477511406	-0.2204639116110924	0.007959714858608632	0.09308605784838837	0.04023538487807077	-0.1824800744235082	0.01034262059991934	0.008112807358106339	-0.05959482059989264	0.02080663700045958	0.01220937774599893	0.1504873872577119	-16.44457691856477	-5.409832984471834	3.992910582395685	-4.115811342462528	-419.2371621246434	-63.97487853706968	-21.50984866245976	0.5382504215460985	0.7142770380925129	-0.7867397281700175	-1.070007223139892	0.2209239310705678	-0.1942296290491241	1.634684296134235	-0.2446937710657893	-0.2446937710599032	-0.3536973396181197	0.1457784635203303	0.2460811049617087	0.3069543392700114	6.381418547566214e-08	1.404926296606238e-06	-5.573276108177811e-07	2.461640860882884e-07	4.616702033764092e-07	-8.376663908045291e-08	3.102964581511586e-07
1.54	-0.5097868811830577	-0.01970333571363364	0.8091594399664239	1.088522823907184	-0.3469668875461672	-0.1375897616798647	-0.3167988592456935	0.5087008096764468	0.5087008096764284	-0.06598320003927195	-0.1742113687813091	0.02145604712381542	0.08180449925906783	1.090218927974025	0.5280630590370403	0.4441693101807457	-2.86135999081133	0.008343916684040676	-0.5289647388218651	0.6688689189135112	-1.564508153068048	-1.564508153068015	-0.223638057347599	0.009712711688360166	0.09563232963798282	0.04350911049264328	-0.1753804313344832	0.009725548784384785	0.008395591956633598	-0.05863822827516365	0.01891441007345463	0.01076224900982688	0.1452208741932696	-16.94783755177538	-4.858747595784322	4.094116394864976	-3.667685022318664	-415.6849181109091	-63.46616218807971	-21.95678182115175	0.388496434059866	0.6679269099762796	-0.8462582733719183	-0.7677246101834511	0.2714733685858015	-0.1115634452933423	1.609004204057002	-0.1032850500606625	-0.1032850500606605	-0.2544773794912644	0.228981150280588	0.2675210956819168	0.3654017701736356	8.85614047736785e-08	1.419050453213303e-06	-7.45059563323094e-07	2.316724179039002e-07	5.390228491235239e-07	-5.80275797707289e-08	3.372549904792115e-07
1.55	-0.4988658362350081	-0.01439010502873453	0.8135580400143785	1.059872994672524	-0.3468714088287327	-0.1428854813094733	-0.310032316936719	0.493052087547956	0.4930520875479369	-0.06823476403072427	-0.1741046186012628	0.02242512026690336	0.08225610905306273	1.09380770586868	0.5344868658218372	0.4354605116641422	-2.868175261404738	0.01075262988022549	-0.5300907025032191	0.6843085321445761	-1.565017805845679	-1.565017805845671	-0.226652299160774	0.01167510388788687	0.09816895185563734	0.04681000940824268	-0.1687027886059617	0.009049326724098363	0.008680050589587721	-0.05690618392577256	0.01564598466739275	0.009500498289395873	0.1401503865914341	-17.89946707280031	-4.347729333978759	4.245186981028602	-2.748726638195874	-412.2831158169157	-63.00440290749118	-22.37928588462116	0.3167453011845119	0.6152177587868993	-0.8966000821136632	-0.5737985708329478	0.2255339207203427	-0.09957230674775276	1.491788272118165	0.007898721740651772	0.007898721736814707	-0.3213146153389753	0.1853270980646387	0.2447688164817409	0.3118836609818011	9.039986863585845e-08	1.39744300818058e-06	-7.756655051757323e-07	2.177858261637716e-07	5.741100782602618e-07	-1.546908493299649e-08	3.322832522093178e-07
1.56	-0.4879143681412086	-0.009015514236776347	0.8178668701889052	1.031167938674546	-0.3467518502542193	-0.1481897524713345	-0.3031153088175365	0.4774048097143651	0.4774048097143361	-0.07051575384694014	-0.1739771527305587	0.02341916683850272	0.08274061777795937	1.096303557123982	0.5403350804488528	0.4262153354951728	-2.872405343474684	0.01315988809983184	-0.5306750452722254	0.698962080955118	-1.564219294089111	-1.56421929408913	-0.2295232222982831	0.01385584981845024	0.1006270153402727	0.05008889667299028	-0.1620251458774446	0.008373104663808105	0.008964509222492137	-0.05517413957638037	0.01237755926133025	0.008238747568961298	0.1350798989895956	-18.85370346702908	-3.835924181779212	4.395755583589557	-1.82346855749732	-408.9179800879704	-62.5970357029007	-22.77670993430904	0.1699111061893737	0.5528084784200282	-0.9535338038450936	-0.2506869054910028	0.2711823732701116	-0.003239262823796	1.451791319952397	0.1583478567789806	0.1583478567789871	-0.2258136443580692	0.2726518964879234	0.2518093490780821	0.3609994400032774	8.741011513277189e-08	1.443459384991305e-06	-7.697118007331546e-07	2.150760987891386e-07	6.047673092737053e-07	2.48075850162816e-08	3.319759091435639e-07
1.57	-0.4769434595091497	-0.003585340481091681	0.8220806883980821	1.002433421280441	-0.3466082297905222	-0.1534978119887127	-0.2960558816445513	0.4617719465540844	0.4617719465540694	-0.07282450259954786	-0.1738273275659017	0.02443739117665766	0.08325780492685547	1.097685990851098	0.5456009155056679	0.4164683345495455	-2.874056335972235	0.0155613680367629	-0.5308578804933844	0.7127790571334318	-1.562127623383932	-1.562127623383942	-0.2321962789514173	0.01613258136890305	0.1030107688406535	0.05334400223032865	-0.1552808183521167	0.007474393856114077	0.009202245618179635	-0.05395096481698654	0.009893223862361701	0.006758752120493752	0.1299658736671656	-19.58551226595247	-3.245923287931404	4.508319055132786	-1.080838874047519	-405.8832637172711	-62.13001103605953	-23.14867169343214	0.09360753102765286	0.4987043061893093	-0.9971501385378599	-0.05599977773533479	0.2239924651407583	-0.01368936944510419	1.325006290506112	0.2683657290408876	0.2683657290419873	-0.2832475986372461	0.2084957777161282	0.2306406167239053	0.3069083250812285	7.838508992310228e-08	1.57400553910634e-06	-7.180585384215576e-07	2.26337451871375e-07	6.298870426330306e-07	6.223197385499179e-08	3.374990600829847e-07
1.58	-0.4659644869348087	0.001894538282536543	0.8261946632180796	0.9736956550901907	-0.3464407221952086	-0.1588052766018392	-0.2888626136050359	0.4461667579111863	0.4461667579111854	-0.07515902110325633	-0.1736540726870616	0.02547924950305756	0.08380737157362136	1.097916345580413	0.550276082037564	0.4062466576592644	-2.873055102703713	0.01793731442314014	-0.5305560644218692	0.7257302542611549	-1.558684390612616	-1.558684390612619	-0.2346771725183979	0.01854179265504262	0.1053538129892673	0.05656479624695145	-0.1485364908267896	0.006575683048419883	0.009439982013866005	-0.05272779005759268	0.007408888463393235	0.005278756672026065	0.124851848344735	-20.31924922074543	-2.654505044546254	4.619424178266981	-0.3339768969086434	-402.872342669941	-61.71215661277606	-23.49515705865947	-0.06050469337067366	0.4346747734361919	-1.048468992775833	0.2797582477235126	0.2660756631593478	0.09369099571105952	1.278635509834249	0.4286602700062118	0.428660270006216	-0.1873810271273602	0.2991478436252752	0.2436674787246656	0.3541371318601634	7.052322589025767e-08	1.669557178854862e-06	-6.793365996930903e-07	2.322734783079169e-07	6.547232155564881e-07	1.010922210519427e-07	3.394091221404503e-07
1.59	-0.4549889636513203	0.007418072343660391	0.8302041561135749	0.9449811966967033	-0.3462495432279442	-0.1641074879826326	-0.2815444001094268	0.4306026336841011	0.4306026336841213	-0.07751726528530611	-0.1734561692499954	0.02654415147429076	0.08438896102917974	1.096994415996446	0.5543174266038982	0.3955814732902504	-2.86937561381324	0.02029012673967157	-0.5298027476251104	0.7377460957341706	-1.553908734680325	-1.553908734680321	-0.2369420200286044	0.02105813567947401	0.1076074383993096	0.0597392350838088	-0.1419877825846258	0.00557480050523794	0.009646167193961065	-0.05142416963751775	0.00467953636624178	0.003769336103375712	0.1198359527951306	-21.15610515319144	-2.038236390434933	4.7334019880501	0.5514324589200312	-400.202948742079	-61.2878407633947	-23.81639051656693	-0.1371023487827512	0.3719148032769059	-1.08597163208555	0.4812192709335493	0.2183977470938474	0.07893331816371686	1.138106097068766	0.53670934712457	0.5367093471256045	-0.2413082793877234	0.2305721636872827	0.2133845817714123	0.2968199837820024	6.423993774024692e-08	1.717616263391688e-06	-6.581643143988699e-07	2.309822757253026e-07	6.791745564598396e-07	1.419011331636489e-07	3.364157064295484e-07
